<svg width="14" height="12" viewBox="0 0 14 12" fill="none" xmlns="http://www.w3.org/2000/svg">
<path d="M10.333 0H3.66634C1.66634 0 0.333008 1 0.333008 3.33333V8C0.333008 10.3333 1.66634 11.3333 3.66634 11.3333H10.333C12.333 11.3333 13.6663 10.3333 13.6663 8V3.33333C13.6663 1 12.333 0 10.333 0ZM10.6463 4.06L8.55968 5.72667C8.11968 6.08 7.55968 6.25333 6.99968 6.25333C6.43968 6.25333 5.87301 6.08 5.43968 5.72667L3.35301 4.06C3.13968 3.88667 3.10634 3.56667 3.27301 3.35333C3.44634 3.14 3.75968 3.1 3.97301 3.27333L6.05968 4.94C6.56634 5.34667 7.42634 5.34667 7.93301 4.94L10.0197 3.27333C10.233 3.1 10.553 3.13333 10.7197 3.35333C10.893 3.56667 10.8597 3.88667 10.6463 4.06Z" fill="#A0A0A0"/>
</svg>
