<svg width="14" height="13" viewBox="0 0 14 13" fill="none" xmlns="http://www.w3.org/2000/svg">
<path d="M11.5 4.5V5.9C11.2067 5.86 10.8733 5.84 10.5 5.83333V4.5C10.5 2.4 9.90667 1 7 1C4.09333 1 3.5 2.4 3.5 4.5V5.83333C3.12667 5.84 2.79333 5.86 2.5 5.9V4.5C2.5 2.56667 2.96667 0 7 0C11.0333 0 11.5 2.56667 11.5 4.5Z" fill="#A0A0A0"/>
<path d="M11.4987 5.06667C11.2054 5.02667 10.872 5.00667 10.4987 5H3.4987C3.12536 5.00667 2.79203 5.02667 2.4987 5.06667C0.798698 5.27333 0.332031 6.10667 0.332031 8.33333V9.66667C0.332031 12.3333 0.998698 13 3.66536 13H10.332C12.9987 13 13.6654 12.3333 13.6654 9.66667V8.33333C13.6654 6.10667 13.1987 5.27333 11.4987 5.06667ZM4.80536 9.47333C4.6787 9.59333 4.50536 9.66667 4.33203 9.66667C4.24536 9.66667 4.1587 9.64667 4.0787 9.61333C3.99203 9.58 3.92536 9.53333 3.8587 9.47333C3.7387 9.34667 3.66536 9.17333 3.66536 9C3.66536 8.91333 3.68536 8.82667 3.7187 8.74667C3.75203 8.66667 3.7987 8.59333 3.8587 8.52667C3.92536 8.46667 3.99203 8.42 4.0787 8.38667C4.32536 8.28 4.6187 8.34 4.80536 8.52667C4.86536 8.59333 4.91203 8.66667 4.94536 8.74667C4.9787 8.82667 4.9987 8.91333 4.9987 9C4.9987 9.17333 4.92536 9.34667 4.80536 9.47333ZM7.61203 9.25333C7.5787 9.33333 7.53203 9.40667 7.47203 9.47333C7.34537 9.59333 7.17203 9.66667 6.9987 9.66667C6.8187 9.66667 6.65203 9.59333 6.52536 9.47333C6.46536 9.40667 6.4187 9.33333 6.38536 9.25333C6.35203 9.17333 6.33203 9.08667 6.33203 9C6.33203 8.82 6.40536 8.65333 6.52536 8.52667C6.77203 8.28 7.2187 8.28 7.47203 8.52667C7.59203 8.65333 7.66536 8.82 7.66536 9C7.66536 9.08667 7.64536 9.17333 7.61203 9.25333ZM10.1387 9.47333C10.012 9.59333 9.8387 9.66667 9.66537 9.66667C9.49203 9.66667 9.3187 9.59333 9.19203 9.47333C9.07203 9.34667 8.9987 9.18 8.9987 9C8.9987 8.82 9.07203 8.65333 9.19203 8.52667C9.44536 8.28 9.89203 8.28 10.1387 8.52667C10.1654 8.56 10.192 8.59333 10.2187 8.63333C10.2454 8.66667 10.2654 8.70667 10.2787 8.74667C10.2987 8.78667 10.312 8.82667 10.3187 8.86667C10.3254 8.91333 10.332 8.96 10.332 9C10.332 9.17333 10.2587 9.34667 10.1387 9.47333Z" fill="#A0A0A0"/>
</svg>
