<svg width="126" height="23" viewBox="0 0 126 23" fill="none" xmlns="http://www.w3.org/2000/svg">
<g clipPath="url(#clip0_825_564)">
<path d="M15.2496 9.39433V0.0712891H16.9176V20.5631H15.2496V10.8851H1.69176V20.5394H0V0.0712891H1.69176V9.418H15.2496V9.39433Z" fill="#2A3A8E"/>
<path d="M29.8791 20.6811C28.6877 20.6811 27.6155 20.4918 26.6386 20.1132C25.6616 19.7346 24.8277 19.1903 24.1128 18.5041C23.398 17.8179 22.85 16.9897 22.4687 16.0195C22.0637 15.073 21.873 14.0082 21.873 12.8961C21.873 11.7603 22.0637 10.7191 22.4449 9.77262C22.8261 8.82612 23.3504 7.99793 24.0175 7.31172C24.6847 6.62551 25.471 6.08127 26.3764 5.70267C27.2819 5.32407 28.2588 5.13477 29.3311 5.13477C30.4033 5.13477 31.3802 5.32407 32.2857 5.70267C33.1911 6.08127 33.9774 6.60184 34.6208 7.28806C35.2879 7.95061 35.7883 8.7788 36.1696 9.7253C36.5508 10.6718 36.7414 11.713 36.7414 12.8724C36.7414 12.9434 36.7414 13.0381 36.7176 13.109C36.7176 13.18 36.6938 13.2747 36.6938 13.3457H23.4933C23.541 14.2212 23.7078 15.0257 24.0652 15.7592C24.3988 16.4928 24.8515 17.108 25.4233 17.6286C25.9952 18.1492 26.6624 18.5514 27.4249 18.8354C28.1873 19.1193 29.0213 19.2613 29.9268 19.2613C30.9037 19.2613 31.833 19.0957 32.6669 18.7407C33.5009 18.4095 34.2395 17.8652 34.8114 17.1553L35.7645 18.2438C35.0735 19.072 34.2157 19.6872 33.215 20.1132C32.1904 20.4681 31.0705 20.6811 29.8791 20.6811ZM35.1212 12.0679C35.0735 11.2634 34.8829 10.5298 34.5493 9.84361C34.2395 9.1574 33.8106 8.56584 33.3103 8.09258C32.8099 7.59567 32.2142 7.21707 31.5232 6.95678C30.856 6.67283 30.0935 6.55452 29.3072 6.55452C28.5209 6.55452 27.7823 6.69649 27.1151 6.95678C26.4479 7.24073 25.8522 7.61933 25.328 8.09258C24.8277 8.5895 24.3988 9.1574 24.089 9.84361C23.7792 10.5298 23.5886 11.2634 23.5171 12.0679H35.1212Z" fill="#2A3A8E"/>
<path d="M44.9858 20.6815C43.2464 20.6815 41.8644 20.2792 40.8875 19.4747C39.9105 18.6702 39.4102 17.6054 39.4102 16.3039C39.4102 15.7124 39.5055 15.1681 39.6961 14.6476C39.8867 14.127 40.2203 13.6774 40.673 13.2751C41.1257 12.8965 41.7453 12.5653 42.4839 12.3286C43.2226 12.092 44.128 11.9737 45.2002 11.9737H50.3947V10.8379C50.3947 9.4418 50.0134 8.37698 49.2509 7.64345C48.4884 6.90991 47.3447 6.55497 45.8674 6.55497C44.819 6.55497 43.8421 6.72061 42.9366 7.07554C42.0312 7.43048 41.2449 7.88007 40.6254 8.44797L39.8391 7.24118C40.6015 6.55497 41.5308 6.03439 42.603 5.65579C43.6753 5.27719 44.819 5.08789 46.0342 5.08789C47.9881 5.08789 49.4892 5.56114 50.5376 6.53131C51.5622 7.47781 52.0864 8.92122 52.0864 10.8616V20.5159H50.49V17.9367C50.0134 18.7885 49.3224 19.4747 48.3931 19.948C47.44 20.4449 46.3201 20.6815 44.9858 20.6815ZM50.3947 13.2515H45.2717C43.6991 13.2515 42.603 13.5354 41.9597 14.1033C41.3402 14.6712 41.0066 15.3811 41.0066 16.2329C41.0066 17.2031 41.364 17.984 42.1027 18.5282C42.8413 19.0961 43.8659 19.3564 45.1764 19.3564C46.4631 19.3564 47.5353 19.0725 48.3931 18.4809C49.2509 17.913 49.9181 17.0848 50.3708 15.9963V13.2515H50.3947Z" fill="#2A3A8E"/>
<path d="M58.0195 20.563V0.28418H59.6636V20.563H58.0195Z" fill="#2A3A8E"/>
<path d="M72.4834 6.62531H67.6464V16.327C67.6464 17.2735 67.8846 18.007 68.3374 18.5276C68.7901 19.0245 69.5049 19.2848 70.4342 19.2848C71.3635 19.2848 72.1498 19.0008 72.7931 18.4566L73.4365 19.6397C73.0314 19.9947 72.5548 20.2549 71.983 20.4206C71.4111 20.5862 70.8393 20.6809 70.2436 20.6809C68.8377 20.6809 67.7893 20.3023 67.0507 19.5687C66.312 18.8352 65.9546 17.794 65.9546 16.4453V6.62531H63.1191V5.25289H66.0023V1.86914H67.6464V5.22922H72.4834V6.62531Z" fill="#2A3A8E"/>
<path d="M85.0889 5.13477C86.9713 5.13477 88.4962 5.67901 89.6638 6.76749C90.8313 7.85597 91.4032 9.46502 91.4032 11.642V20.5864H89.7591V11.784C89.7591 10.0566 89.3302 8.77881 88.4724 7.90329C87.6146 7.02778 86.3994 6.60185 84.8744 6.60185C83.0874 6.60185 81.6815 7.12243 80.6808 8.16358C79.6562 9.20473 79.1558 10.6481 79.1558 12.4465V20.5628H77.5117V0H79.1558V8.25823C79.7039 7.2644 80.4902 6.48354 81.4909 5.9393C82.4917 5.39506 83.6831 5.13477 85.0889 5.13477Z" fill="#2A3A8E"/>
<path d="M97.8359 20.5631V0.0712891H99.5277V20.5631H97.8359Z" fill="#971C52"/>
<path d="M125.189 6.24691C124.641 4.96913 123.902 3.88066 122.925 2.95782C121.972 2.03498 120.829 1.3251 119.494 0.780864C118.184 0.283951 116.778 0 115.229 0C113.704 0 112.274 0.260288 110.964 0.780864C109.653 1.30144 108.51 2.03498 107.533 2.95782C106.58 3.88066 105.817 4.96913 105.269 6.24691C104.721 7.52469 104.459 8.89712 104.459 10.4115C104.459 11.8313 104.697 13.1564 105.198 14.3868C105.698 15.6173 106.389 16.6821 107.271 17.6049C107.366 17.6996 107.437 17.7706 107.533 17.8652C107.866 17.4156 108.224 16.9897 108.629 16.6111C108.605 16.5874 108.557 16.5401 108.533 16.5165C107.795 15.7356 107.247 14.8364 106.818 13.7953C106.413 12.7541 106.198 11.642 106.198 10.4588C106.198 9.18107 106.413 8.0216 106.866 6.93313C107.318 5.84465 107.962 4.92181 108.772 4.11728C109.582 3.33642 110.535 2.69753 111.655 2.24794C112.751 1.79835 113.966 1.58539 115.253 1.58539C116.54 1.58539 117.755 1.79835 118.851 2.24794C119.947 2.69753 120.9 3.31276 121.734 4.11728C122.544 4.89815 123.187 5.84465 123.64 6.93313C124.093 8.0216 124.307 9.20473 124.307 10.4588C124.307 11.642 124.117 12.7305 123.712 13.7479C123.307 14.7654 122.759 15.6646 122.068 16.4455C121.996 16.5165 121.948 16.5638 121.877 16.6348C122.282 17.0134 122.639 17.4393 122.949 17.8889C123.068 17.7706 123.187 17.6759 123.283 17.5576C124.141 16.6584 124.808 15.5936 125.284 14.3868C125.761 13.18 125.999 11.8786 125.999 10.4588C125.999 8.89712 125.737 7.52469 125.189 6.24691Z" fill="#971C52"/>
<path d="M120.137 17.1553H116.182V13.251H114.276V17.1553H110.32V19.072H114.276V22.9999H116.182V19.072H120.137V17.1553Z" fill="#971C52"/>
</g>
<defs>
<clipPath id="clip0_825_564">
<rect width="126" height="23" fill="white"/>
</clipPath>
</defs>
</svg>
