<svg width="24" height="24" viewBox="0 0 24 24" fill="none" xmlns="http://www.w3.org/2000/svg">
<g clip-path="url(#clip0_3123_11307)">
<path d="M13.2281 2.68799C12.877 2.41488 12.4449 2.2666 12.0001 2.2666C11.5553 2.2666 11.1232 2.41488 10.7721 2.68799L2.3881 9.20799C1.6361 9.79499 2.0501 11 3.0031 11H4.0001V19C4.0001 19.5304 4.21082 20.0391 4.58589 20.4142C4.96096 20.7893 5.46967 21 6.0001 21H10.0001V15C10.0001 14.4696 10.2108 13.9608 10.5859 13.5858C10.961 13.2107 11.4697 13 12.0001 13C12.5305 13 13.0392 13.2107 13.4143 13.5858C13.7894 13.9608 14.0001 14.4696 14.0001 15V21H18.0001C18.5305 21 19.0392 20.7893 19.4143 20.4142C19.7894 20.0391 20.0001 19.5304 20.0001 19V11H20.9971C21.9491 11 22.3651 9.79499 21.6121 9.20899L13.2281 2.68799Z" fill="black" />
</g>
<defs>
<clipPath id="clip0_3123_11307">
<rect width="24" height="24" rx="8" fill="white"/>
</clipPath>
</defs>
</svg>
