<svg width="20" height="18" viewBox="0 0 20 18" fill="none" xmlns="http://www.w3.org/2000/svg">
<g clip-path="url(#clip0_971_1110)">
<path d="M13.9628 10.1923C13.9628 10.1107 13.957 10.064 13.9628 10.0233C14.0444 9.47547 13.8171 9.0792 13.4208 8.70624C12.4476 7.77966 11.5094 6.8123 10.5595 5.86241C10.3847 5.68759 10.1924 5.57687 9.94181 5.60018C9.65626 5.62931 9.4523 5.78083 9.34741 6.04889C9.23668 6.33444 9.31244 6.59085 9.52806 6.80647C10.2973 7.5757 11.0723 8.35076 11.8416 9.11999C11.8707 9.14913 11.9057 9.18409 11.9348 9.21323C12.6166 9.89505 12.6166 9.89505 12.5642 10.8566C12.5584 10.9149 12.5351 10.9964 12.4884 11.0198C11.9115 11.317 11.3812 11.7191 10.7344 11.8706C9.9826 12.0454 9.25999 11.9755 8.57817 11.6025C5.98493 10.1748 3.38587 8.7412 0.798454 7.30763C0.285634 7.01626 -0.00574174 6.56754 8.57702e-05 5.96731C0.00591328 5.34377 0.332254 4.91836 0.856729 4.62698C3.15277 3.35659 5.44298 2.09202 7.73901 0.827448C8.10615 0.623486 8.46745 0.396213 8.85789 0.23887C9.76699 -0.128263 10.6586 -0.0583326 11.5211 0.419523C13.549 1.5384 15.577 2.65729 17.605 3.78199C18.112 4.06171 18.6248 4.34143 19.1318 4.62698C19.6679 4.92419 20.0001 5.35542 20.0001 5.98479C20.0001 6.61416 19.6737 7.05122 19.1434 7.34843C17.4651 8.275 15.7868 9.20157 14.1085 10.1281C14.0735 10.1398 14.0327 10.1573 13.9628 10.1923Z" fill="black"/>
<path d="M12.5933 15.8101C12.5059 15.8159 12.4184 15.8276 12.331 15.8276C10.338 15.8276 8.34502 15.8276 6.35784 15.8276C4.53383 15.8276 3.11192 14.6271 2.82055 12.8264C2.79141 12.6632 2.79141 12.4942 2.79141 12.3252C2.78558 11.4453 2.79141 10.5653 2.79141 9.68538C2.79141 9.6271 2.79724 9.56883 2.80306 9.47559C2.90213 9.52803 2.98372 9.56883 3.0653 9.61545C4.77276 10.5595 6.47439 11.5269 8.19933 12.436C9.38814 13.0653 10.6177 13.0304 11.824 12.4418C12.063 12.3252 12.2961 12.1912 12.57 12.0397C12.57 12.1562 12.57 12.2262 12.57 12.3019C12.57 13.3917 12.57 14.4814 12.57 15.5712C12.5641 15.6586 12.5816 15.7343 12.5933 15.8101Z" fill="black"/>
<path d="M13.9918 15.8452C13.9802 15.7694 13.9627 15.6878 13.9627 15.6121C13.9627 14.231 13.9627 12.8498 13.9627 11.4687C13.9627 11.358 13.9569 11.2648 14.0851 11.1948C15.0991 10.6412 16.1072 10.0818 17.1212 9.52233C17.1387 9.51068 17.162 9.51068 17.2028 9.49902C17.2086 9.57478 17.2144 9.64471 17.2144 9.70881C17.2144 10.5538 17.2144 11.393 17.2144 12.238C17.2086 14.1086 16.0081 15.5072 14.1608 15.7927C14.0967 15.8044 14.0443 15.8277 13.9918 15.8452Z" fill="black"/>
<path d="M12.5932 15.8161C12.9836 15.8219 13.3682 15.8219 13.7587 15.8277C13.8344 15.8277 13.916 15.8394 13.9918 15.8452C13.9918 15.8452 13.986 15.8394 13.986 15.8452C13.9743 16.2123 13.9685 16.5795 13.9568 16.9466C13.9452 17.3429 13.7295 17.6109 13.3682 17.675C13.0186 17.7391 12.6107 17.5002 12.5874 17.1506C12.5524 16.7077 12.5874 16.259 12.5932 15.8161Z" fill="black"/>
</g>
<defs>
<clipPath id="clip0_971_1110">
<rect width="20" height="17.6865" fill="white"/>
</clipPath>
</defs>
</svg>
