<svg width="20" height="20" viewBox="0 0 20 20" fill="none" xmlns="http://www.w3.org/2000/svg">
<g clip-path="url(#clip0_971_1125)">
<path d="M9.98867 16.3538C8.19117 16.3538 6.39936 16.3595 4.60186 16.3538C2.36637 16.3424 0.557494 14.8862 0.102432 12.7247C0.0341725 12.4061 0.00573106 12.0762 0.00573106 11.752C4.27733e-05 9.37429 4.27733e-05 6.99659 0.00573106 4.61888C0.0114193 2.281 1.58707 0.432309 3.89652 0.0568828C4.14111 0.0170648 4.3914 0.00568828 4.63599 0.00568828C8.21392 0 11.7919 0 15.3698 0C17.6167 0 19.4369 1.4562 19.8977 3.62912C19.9659 3.94767 19.9944 4.27759 19.9944 4.60182C20 6.98521 20.0057 9.3686 19.9944 11.752C19.9887 13.9249 18.595 15.7167 16.5074 16.223C16.1263 16.314 15.7225 16.3424 15.33 16.3481C13.5495 16.3595 11.7691 16.3538 9.98867 16.3538ZM10 9.09556C9.13542 9.09556 8.27081 9.09556 7.4005 9.09556C6.43349 9.09556 5.47217 9.08987 4.50516 9.10125C4.06148 9.10694 3.69743 9.44824 3.65192 9.87486C3.60073 10.3413 3.8567 10.7509 4.30038 10.8703C4.4369 10.9044 4.57911 10.9044 4.72132 10.9044C8.24236 10.9044 11.7634 10.9044 15.2845 10.9044C15.3755 10.9044 15.4722 10.9044 15.5632 10.8987C15.9841 10.8589 16.3311 10.5063 16.3595 10.0853C16.3994 9.51081 16.0069 9.09556 15.3925 9.09556C13.595 9.08987 11.7975 9.09556 10 9.09556ZM7.26967 7.27531C8.15135 7.27531 9.02735 7.27531 9.90903 7.27531C10.4949 7.27531 10.8988 6.90557 10.9045 6.37088C10.9045 5.83049 10.5063 5.45506 9.92041 5.45506C8.15135 5.45506 6.38798 5.44937 4.61893 5.46075C4.45966 5.46075 4.28901 5.49488 4.1468 5.56314C3.76 5.73948 3.57228 6.16041 3.6633 6.57565C3.75431 6.97383 4.11836 7.27531 4.54498 7.27531C5.44942 7.27531 6.35954 7.26962 7.26967 7.27531Z" fill="black"/>
<path d="M10.0228 18.1738C11.826 18.1738 13.6292 18.1738 15.4323 18.1738C15.8419 18.1738 16.1718 18.407 16.3083 18.7711C16.4392 19.1238 16.3482 19.5504 16.0353 19.7665C15.8647 19.886 15.6371 19.9372 15.4323 19.9884C15.3072 20.0225 15.165 19.9941 15.0285 19.9941C11.5928 19.9941 8.15703 19.9941 4.72131 19.9941C4.56204 19.9941 4.39139 19.9827 4.2378 19.9315C3.82256 19.795 3.58934 19.3854 3.65191 18.9361C3.70879 18.5265 4.07853 18.2023 4.50515 18.1795C4.57341 18.1738 4.64736 18.1795 4.71562 18.1795C6.48468 18.1738 8.25373 18.1738 10.0228 18.1738Z" fill="black"/>
</g>
<defs>
<clipPath id="clip0_971_1125">
<rect width="20" height="20.0057" fill="white"/>
</clipPath>
</defs>
</svg>
