<svg width="20" height="20" viewBox="0 0 20 20" fill="none" xmlns="http://www.w3.org/2000/svg">
<path d="M11.8961 2.96312C11.9173 2.8838 11.954 2.80944 12.0039 2.74429C12.0539 2.67913 12.1162 2.62446 12.1873 2.5834C12.2584 2.54233 12.3369 2.51568 12.4183 2.50496C12.4997 2.49425 12.5824 2.49967 12.6617 2.52094C13.8204 2.82324 14.8775 3.42894 15.7242 4.27565C16.5709 5.12236 17.1766 6.17948 17.4789 7.33812C17.5002 7.41743 17.5056 7.50015 17.4949 7.58155C17.4842 7.66296 17.4575 7.74145 17.4165 7.81255C17.3754 7.88366 17.3207 7.94597 17.2556 7.99593C17.1904 8.0459 17.116 8.08253 17.0367 8.10375C16.9839 8.11762 16.9296 8.1247 16.875 8.12484C16.7374 8.12488 16.6036 8.0795 16.4944 7.99573C16.3852 7.91196 16.3067 7.7945 16.2711 7.66156C16.0247 6.71557 15.5304 5.85243 14.8392 5.16113C14.1481 4.46982 13.285 3.97537 12.3391 3.72875C12.2597 3.70762 12.1852 3.67104 12.12 3.62111C12.0548 3.57118 12 3.50888 11.9589 3.43777C11.9177 3.36666 11.891 3.28814 11.8802 3.2067C11.8695 3.12525 11.8749 3.04248 11.8961 2.96312ZM11.7141 6.22875C12.7914 6.51625 13.4836 7.20922 13.7711 8.28656C13.8067 8.4195 13.8852 8.53696 13.9944 8.62073C14.1036 8.7045 14.2374 8.74988 14.375 8.74984C14.4296 8.7497 14.4839 8.74262 14.5367 8.72875C14.616 8.70753 14.6904 8.6709 14.7556 8.62093C14.8207 8.57097 14.8754 8.50866 14.9165 8.43755C14.9575 8.36645 14.9842 8.28796 14.9949 8.20655C15.0056 8.12515 15.0002 8.04243 14.9789 7.96312C14.5789 6.46625 13.5336 5.42094 12.0367 5.02094C11.9574 4.99975 11.8747 4.99439 11.7933 5.00517C11.712 5.01594 11.6335 5.04264 11.5624 5.08374C11.4914 5.12484 11.4291 5.17953 11.3792 5.24469C11.3293 5.30985 11.2927 5.38421 11.2715 5.46351C11.2503 5.54282 11.2449 5.62552 11.2557 5.7069C11.2665 5.78828 11.2932 5.86673 11.3343 5.93779C11.3754 6.00885 11.4301 6.07112 11.4952 6.12104C11.5604 6.17096 11.6348 6.20756 11.7141 6.22875ZM17.3727 12.3795L13.6922 10.7303L13.682 10.7256C13.491 10.6439 13.2825 10.6111 13.0756 10.6302C12.8687 10.6493 12.6698 10.7197 12.4969 10.835C12.4765 10.8484 12.457 10.8631 12.4383 10.8787L10.5367 12.4998C9.33204 11.9147 8.08829 10.6803 7.50313 9.49125L9.12657 7.56078C9.14219 7.54125 9.15704 7.52172 9.1711 7.50062C9.28394 7.3282 9.35239 7.13056 9.37039 6.92529C9.38838 6.72002 9.35534 6.51348 9.27423 6.32406V6.31469L7.62032 2.62797C7.51309 2.38052 7.3287 2.17438 7.09468 2.04034C6.86067 1.9063 6.58958 1.85153 6.32188 1.88422C5.26326 2.02352 4.29155 2.54341 3.58824 3.34679C2.88492 4.15017 2.49809 5.1821 2.50001 6.24984C2.50001 12.453 7.54688 17.4998 13.75 17.4998C14.8177 17.5018 15.8497 17.1149 16.6531 16.4116C17.4564 15.7083 17.9763 14.7366 18.1156 13.678C18.1484 13.4104 18.0937 13.1393 17.9598 12.9053C17.8259 12.6713 17.62 12.4869 17.3727 12.3795Z" fill="black"/>
</svg>
