<svg width="15" height="24" viewBox="0 0 15 24" fill="none" xmlns="http://www.w3.org/2000/svg">
<g clip-path="url(#clip0_971_1132)">
<path d="M7.68256 0C8.0954 0.181818 8.25097 0.498534 8.21507 0.938416C8.19113 1.27273 8.21507 1.60704 8.20908 1.94135C8.2031 2.35191 7.89197 2.66276 7.49109 2.66276C7.09022 2.66276 6.77909 2.35777 6.7731 1.94135C6.76712 1.60704 6.79105 1.27273 6.76712 0.938416C6.7372 0.498534 6.88679 0.181818 7.29963 0C7.43126 0 7.55691 0 7.68256 0Z" fill="black"/>
<path d="M6.74905 17.9357C5.63018 17.9357 4.52926 17.9357 3.38646 17.9357C3.47023 17.6542 3.26082 17.5545 3.08132 17.4254C1.42994 16.2172 0.388858 14.6219 0.0956788 12.6219C-0.311182 9.91223 0.580322 7.63071 2.69241 5.84772C4.18822 4.59258 5.95926 4.02367 7.92775 4.15857C10.6621 4.34625 12.7143 5.64244 14.0666 7.95915C15.5803 10.5457 15.2153 13.9767 13.211 16.2231C12.7981 16.6864 12.2895 17.0794 11.8109 17.4841C11.6673 17.6072 11.5476 17.7011 11.6015 17.924C10.4706 17.924 9.35775 17.924 8.22691 17.924C8.22093 17.8712 8.21494 17.8184 8.21494 17.7656C8.21494 16.663 8.21494 15.5662 8.20896 14.4636C8.20896 14.3169 8.2688 14.2641 8.39444 14.2114C9.29193 13.8184 9.77059 13.1322 9.83042 12.1762C9.86034 11.748 9.56118 11.4196 9.14833 11.3961C8.75942 11.3726 8.42436 11.66 8.39444 12.0823C8.35256 12.7979 7.67645 13.138 7.13796 12.9093C6.79093 12.7627 6.62938 12.4811 6.59348 12.1175C6.54562 11.6542 6.22851 11.3668 5.82165 11.3961C5.39085 11.4313 5.11562 11.7715 5.15751 12.2348C5.24127 13.1615 5.71395 13.8243 6.58152 14.2114C6.68323 14.2583 6.77897 14.2817 6.77298 14.4342C6.767 15.5721 6.767 16.7158 6.767 17.8536C6.767 17.8712 6.76102 17.8946 6.74905 17.9357Z" fill="black"/>
<path d="M11.5776 19.3901C11.6793 21.0265 11.1647 22.3931 9.7467 23.2963C8.26884 24.2406 6.71918 24.2347 5.23533 23.3022C3.87115 22.4459 3.25488 20.9796 3.42241 19.3901C6.13282 19.3901 8.84921 19.3901 11.5776 19.3901Z" fill="black"/>
<path d="M5.49856 2.36352C5.50455 2.70956 5.29513 2.97936 4.96606 3.06733C4.66689 3.14945 4.3079 3.02628 4.17028 2.73889C3.96685 2.29314 3.78137 1.83566 3.63179 1.36645C3.52409 1.03801 3.73351 0.697833 4.0566 0.568801C4.3797 0.439768 4.78058 0.539475 4.93016 0.84446C5.14555 1.30194 5.3071 1.78874 5.4866 2.25795C5.49856 2.29314 5.49258 2.34006 5.49856 2.36352Z" fill="black"/>
<path d="M11.3681 1.27271C11.3621 1.3079 11.3501 1.40174 11.3202 1.48971C11.1826 1.85335 11.045 2.22285 10.9014 2.58062C10.7279 3.00291 10.333 3.19059 9.95003 3.04397C9.55514 2.89147 9.39957 2.50438 9.56112 2.07622C9.70472 1.69499 9.84233 1.31376 10.0039 0.94426C10.1415 0.627544 10.4825 0.463321 10.8056 0.533703C11.1347 0.598219 11.3681 0.879744 11.3681 1.27271Z" fill="black"/>
</g>
<defs>
<clipPath id="clip0_971_1132">
<rect width="15" height="24" fill="white"/>
</clipPath>
</defs>
</svg>
