<svg width="19" height="17" viewBox="0 0 19 17" fill="none" xmlns="http://www.w3.org/2000/svg">
<g clip-path="url(#clip0_971_1142)">
<path d="M18.9999 15.4652C18.9209 15.7986 18.8233 16.1222 18.5955 16.3919C18.3353 16.7008 18.0192 16.9411 17.6335 16.9558C16.7411 16.9852 15.8441 16.9656 14.9935 16.9656C15.0028 16.387 15.0214 15.7986 15.0214 15.2053C15.0261 13.7588 15.0214 12.3123 15.0214 10.8609C15.0214 10.3216 14.9842 9.79199 14.8169 9.28204C14.8076 9.25262 14.8123 9.2183 14.803 9.16436C15.5931 9.21339 16.3879 9.04668 17.1454 9.34088C18.1679 9.73805 18.7768 10.5177 18.9627 11.6602C18.9674 11.6896 18.986 11.719 18.9952 11.7484C18.9999 12.989 18.9999 14.2295 18.9999 15.4652Z" fill="black"/>
<path d="M9.48137 16.9998C8.23112 16.9998 6.98552 16.9998 5.73528 16.9998C5.2798 16.9998 5.07995 16.789 5.07995 16.3085C5.07995 14.4108 5.0753 12.5132 5.07995 10.6156C5.08459 9.19366 5.93048 8.06588 7.23185 7.74716C7.42706 7.69813 7.63621 7.68342 7.83606 7.67851C8.94223 7.67361 10.0484 7.66871 11.1546 7.67851C12.4792 7.68832 13.5435 8.58564 13.8456 9.93897C13.8967 10.1645 13.9107 10.4048 13.9107 10.6352C13.9153 12.5329 13.9153 14.4305 13.9153 16.3281C13.9153 16.7841 13.7108 16.9949 13.2786 16.9998C12.0144 16.9998 10.7502 16.9998 9.48137 16.9998Z" fill="black"/>
<path d="M9.5001 6.9579C7.68748 6.9579 6.20484 5.38392 6.2002 3.46179C6.2002 1.55928 7.69677 -0.00489188 9.50939 1.1497e-05C11.3174 0.00491487 12.8 1.56909 12.8 3.46179C12.8 5.37901 11.3127 6.9579 9.5001 6.9579Z" fill="black"/>
<path d="M4.04828 17C3.68111 17 3.30929 17 2.94212 17C2.53312 17 2.12412 17.0049 1.71976 17C0.7112 16.9902 0.00938989 16.2498 0.00938989 15.1858C0.00474214 14.1806 0.00938989 13.1754 0.00938989 12.1702C0.00938989 10.4785 1.14344 9.23798 2.74691 9.17914C3.22563 9.15953 3.709 9.17424 4.20631 9.17424C4.19236 9.24779 4.17377 9.29192 4.16913 9.34096C4.10871 9.78226 3.99716 10.2285 3.99251 10.6698C3.97392 12.5429 3.98322 14.4159 3.98786 16.2841C3.98322 16.5195 4.0204 16.75 4.04828 17Z" fill="black"/>
<path d="M1.24098 5.84488C1.23633 4.418 2.3425 3.24609 3.70429 3.24609C5.06143 3.24609 6.1583 4.39348 6.1676 5.82037C6.17689 7.25705 5.06143 8.44367 3.70429 8.44367C2.35644 8.44367 1.24563 7.27667 1.24098 5.84488Z" fill="black"/>
<path d="M17.759 5.85951C17.7311 7.30601 16.6157 8.46811 15.2771 8.44359C13.906 8.41907 12.8092 7.23246 12.8324 5.80067C12.8556 4.35908 13.9711 3.21659 15.3329 3.24111C16.6854 3.27053 17.7869 4.45224 17.759 5.85951Z" fill="black"/>
</g>
<defs>
<clipPath id="clip0_971_1142">
<rect width="19" height="17" fill="white"/>
</clipPath>
</defs>
</svg>
